<svg width="260" height="260" viewBox="0 0 260 260" fill="none" xmlns="http://www.w3.org/2000/svg">
<rect width="260" height="260" rx="45" fill="black"/>
<path d="M117.903 180L106.478 150.547H69.2803L57.918 180H47L83.3086 86.8164H93.0205L129.075 180H117.903ZM103.24 140.962L92.3857 111.699C92.1318 110.938 91.7087 109.689 91.1162 107.954C90.5661 106.219 89.9948 104.421 89.4023 102.559C88.8099 100.697 88.3232 99.1943 87.9424 98.0518C87.5192 99.7868 87.0537 101.522 86.5459 103.257C86.0804 104.95 85.6149 106.536 85.1494 108.018C84.6839 109.456 84.2819 110.684 83.9434 111.699L72.8984 140.962H103.24ZM207.329 155.308C207.329 160.809 205.954 165.506 203.203 169.399C200.495 173.25 196.686 176.191 191.777 178.223C186.868 180.254 181.092 181.27 174.448 181.27C170.936 181.27 167.614 181.1 164.482 180.762C161.351 180.423 158.473 179.937 155.85 179.302C153.226 178.667 150.92 177.884 148.931 176.953V166.606C152.104 167.918 155.977 169.146 160.547 170.288C165.117 171.388 169.899 171.938 174.893 171.938C179.548 171.938 183.483 171.325 186.699 170.098C189.915 168.828 192.349 167.03 193.999 164.702C195.692 162.332 196.538 159.497 196.538 156.196C196.538 153.022 195.84 150.378 194.443 148.262C193.047 146.104 190.719 144.157 187.461 142.422C184.245 140.645 179.844 138.761 174.258 136.772C170.322 135.376 166.852 133.853 163.848 132.202C160.843 130.509 158.325 128.605 156.294 126.489C154.263 124.373 152.718 121.919 151.66 119.126C150.645 116.333 150.137 113.138 150.137 109.541C150.137 104.59 151.385 100.358 153.882 96.8457C156.421 93.291 159.912 90.5827 164.355 88.7207C168.841 86.8164 173.983 85.8643 179.78 85.8643C184.731 85.8643 189.302 86.3298 193.491 87.2607C197.723 88.1917 201.595 89.4401 205.107 91.0059L201.743 100.273C198.4 98.877 194.845 97.7132 191.079 96.7822C187.355 95.8512 183.504 95.3857 179.526 95.3857C175.549 95.3857 172.184 95.9782 169.434 97.1631C166.725 98.3057 164.652 99.9349 163.213 102.051C161.774 104.167 161.055 106.685 161.055 109.604C161.055 112.863 161.732 115.571 163.086 117.729C164.482 119.888 166.683 121.813 169.688 123.506C172.734 125.156 176.755 126.891 181.748 128.711C187.207 130.7 191.841 132.816 195.649 135.059C199.458 137.259 202.357 139.967 204.346 143.184C206.335 146.357 207.329 150.399 207.329 155.308Z" fill="#FFFEFE"/>
</svg>
